<?xml version="1.0" encoding="UTF-8" standalone="no"?>
<!-- Created with Inkscape (http://www.inkscape.org/) -->

<svg
   xmlns:dc="http://purl.org/dc/elements/1.1/"
   xmlns:cc="http://creativecommons.org/ns#"
   xmlns:rdf="http://www.w3.org/1999/02/22-rdf-syntax-ns#"
   xmlns:svg="http://www.w3.org/2000/svg"
   xmlns="http://www.w3.org/2000/svg"
   xmlns:sodipodi="http://sodipodi.sourceforge.net/DTD/sodipodi-0.dtd"
   xmlns:inkscape="http://www.inkscape.org/namespaces/inkscape"
   width="210mm"
   height="297mm"
   viewBox="0 0 210 297"
   version="1.1"
   id="svg8"
   inkscape:version="0.92.2 (5c3e80d, 2017-08-06)"
   sodipodi:docname="bad_boy_barford.svg">
  <defs
     id="defs2" />
  <sodipodi:namedview
     id="base"
     pagecolor="#ffffff"
     bordercolor="#666666"
     borderopacity="1.0"
     inkscape:pageopacity="0.0"
     inkscape:pageshadow="2"
     inkscape:zoom="0.98994949"
     inkscape:cx="361.95174"
     inkscape:cy="491.17503"
     inkscape:document-units="mm"
     inkscape:current-layer="layer1"
     showgrid="false"
     inkscape:window-width="1920"
     inkscape:window-height="981"
     inkscape:window-x="1200"
     inkscape:window-y="367"
     inkscape:window-maximized="1" />
  <metadata
     id="metadata5">
    <rdf:RDF>
      <cc:Work
         rdf:about="">
        <dc:format>image/svg+xml</dc:format>
        <dc:type
           rdf:resource="http://purl.org/dc/dcmitype/StillImage" />
        <dc:title></dc:title>
      </cc:Work>
    </rdf:RDF>
  </metadata>
  <g
     inkscape:label="Layer 1"
     inkscape:groupmode="layer"
     id="layer1">
    <path
       style="fill:none;stroke:#000000;stroke-width:0.26458332px;stroke-linecap:butt;stroke-linejoin:miter;stroke-opacity:1"
       d="m 44.790167,124.07589 c 0.989107,-1.64123 1.981394,-2.59562 3.78607,-3.23992 0.682436,-0.24364 1.506267,-0.18693 2.171563,0.10023 1.308769,0.56491 2.211225,1.83834 3.073601,2.97337 2.315252,3.04727 4.212343,6.47808 5.479026,10.08942 1.090749,3.10975 -0.461606,7.28193 1.742728,9.73166 0.680102,0.75581 2.255648,0.0889 2.929313,0.85045 2.092881,2.36594 0.01087,6.57558 1.511906,9.35491 1.41965,2.62864 4.087588,4.45405 6.614583,6.04762 2.414372,1.52254 5.103553,2.8721 7.9375,3.2128 3.887529,0.46736 8.064021,-0.0679 11.622768,-1.7009 2.881629,-1.32228 5.7231,-3.42144 7.181548,-6.2366 2.315417,-4.46931 4.146157,-10.73543 1.511907,-15.02456 -1.325532,-2.15825 -4.610126,-2.21127 -7.087056,-2.74032 -4.75009,-1.01458 -9.695186,-0.81324 -14.552083,-0.75596 -3.758707,0.0443 -7.999895,-1.04704 -11.244792,0.85045 -1.960726,1.14656 -1.851776,6.87044 -3.779761,5.66964 -1.91683,-1.19385 1.525746,-4.60165 3.401785,-5.85863 3.090079,-2.07041 7.337787,-1.4045 11.055803,-1.5119 5.242493,-0.15143 10.563438,0.1033 15.686013,1.22842 2.394511,0.52593 4.471182,2.20414 6.898061,2.55134 3.56332,0.50978 7.17655,-0.58993 10.77232,-0.75595 7.08126,-0.32696 14.18098,-0.82187 21.26117,-0.47247 4.43671,0.21895 9.8262,-1.24881 13.22916,1.6064 1.74035,1.46022 1.98438,5.95312 1.98438,6.52009 0,0.56696 -0.85045,6.61458 -0.94494,7.08705 -0.0945,0.47247 -2.0928,4.28567 -3.87426,5.76413 -2.08462,1.73006 -4.84671,2.51769 -7.46503,3.2128 -3.5233,0.93536 -7.22433,1.37279 -10.86681,1.22843 -3.3023,-0.13088 -9.63839,-1.51191 -9.73289,-1.88989 -0.0945,-0.37797 -3.49628,-9.82738 -3.68527,-10.20535 -0.18899,-0.37798 -1.13393,-5.48066 -1.13393,-6.70908 0,-1.22842 0.86049,-2.38043 1.22842,-3.59077 0.14222,-0.46784 -0.009,-1.11813 0.37798,-1.41741 5.31089,-4.10808 24.03001,-2.09229 30.71692,-1.28074 -0.21236,0.23132 0.81586,-0.71762 0.51069,-0.79157 -6.26786,-1.53123 -24.67778,-0.83865 -30.75514,1.97782 -1.2771,0.59185 -2.74033,2.83482 -2.74033,3.2128 0,0.37797 -0.24288,2.77943 -0.0945,4.15774 0.31564,2.93195 1.2309,5.77461 2.07887,8.59896 1.17467,3.9125 1.84591,8.16033 4.15774,11.52827 3.34878,4.8786 8.36915,6.0914 13.41815,11.62277 4.01363,4.39709 -8.90093,-13.63039 -14.1741,-10.86682 -1.14521,0.60018 1.24608,3.12976 0.18898,3.87426 -0.80822,0.56922 -1.75535,-1.04988 -2.74032,-1.13393 -0.9974,-0.0851 -2.25493,-0.0783 -2.92932,0.66146 -0.4922,0.53991 0.0534,1.52509 -0.28348,2.17336 -0.4729,0.90996 -1.79539,1.88988 -2.26786,2.07887 -0.47247,0.18899 -2.1986,0.57722 -3.30729,0.47247 -1.16026,-0.10962 -2.36983,-0.44155 -3.30729,-1.13393 -0.689233,-0.50905 -0.93069,-1.4493 -1.511907,-2.07887 -0.393969,-0.42675 -0.782704,-0.92064 -1.322917,-1.13393 -0.674471,-0.2663 -1.6064,-0.189 -2.173364,-0.0945 -0.566963,0.0945 -1.338445,0.73943 -2.078868,0.85045 -0.688122,0.10318 -1.665214,0.37052 -2.078868,-0.18899 -1.54979,-2.09624 1.322919,-7.08706 1.606399,-7.65402 0.283483,-0.56697 4.890161,-3.68324 3.307291,-4.8192 -2.686964,-1.92832 -4.091035,5.20422 -5.953125,7.9375 -1.250105,1.83497 -2.067164,3.97038 -3.49628,5.66965 -0.947889,1.12707 -2.845131,1.53103 -3.307292,2.92931 -0.767714,2.32274 -0.11864,5.35787 1.511906,7.18155 2.609133,2.91818 7.281818,3.08673 11.150295,3.68527 2.552655,0.39495 7.18155,-0.0945 7.74851,-0.0945 0.56697,0 6.99256,-0.47247 7.65402,-0.66146 0.66146,-0.18899 8.22076,-6.57879 10.58333,-3.68526 0.85753,1.05025 -1.0379,2.62748 -2.07886,3.49627 -1.3161,1.09843 -3.77977,1.51191 -4.8192,1.79539 -1.03944,0.28349 -4.34776,1.62818 -6.61458,2.07887 -2.10891,0.41929 -4.29777,0.87628 -6.4256,0.56697 -6.100808,-0.88683 -13.174687,-2.1324 -17.197915,-6.80358 -1.670084,-1.93906 -2.242548,-4.97054 -1.734833,-7.4788 0.684991,-3.38405 3.976013,-5.64831 6.080381,-8.38558 2.310918,-3.00594 4.953342,-5.7531 7.182869,-8.81989 5.172018,-9.48735 -1.973509,1.10599 -4.535858,2.57267 -3.127726,1.52519 -6.836995,2.04369 -10.299851,1.70089 -3.283433,-0.32504 -6.444769,-1.77619 -9.260416,-3.49628 -2.683207,-1.63918 -5.416115,-3.61056 -6.992562,-6.3311 -1.551894,-2.67817 -0.01259,-6.68543 -1.984375,-9.07143 -0.611241,-0.73965 -2.048478,-0.38302 -2.645833,-1.13393 -1.992425,-2.50458 -1.736238,-6.24918 -1.700893,-9.4494 0.04898,-4.43503 1.890918,-8.6696 2.645834,-13.04018 0.87191,-5.04792 1.105001,-10.20352 2.173364,-15.21354 0.478238,-2.24267 1.228422,-5.57515 1.889881,-6.614585 0.661458,-1.039434 4.630208,-3.401788 5.008184,-3.496281 0.377975,-0.09449 4.346726,-0.850445 4.819195,-0.850445 0.472472,0 6.898067,3.212798 7.276042,3.496278 0.377977,0.283482 6.579515,4.263153 10.299851,5.291663 4.685167,1.29525 9.692405,1.05418 14.552085,0.94494 4.02346,-0.0904 8.32048,0.30561 12.00074,-1.32291 2.95897,-1.30935 5.41508,-3.778576 7.27605,-6.425596 1.42296,-2.024004 1.0672,-5.075405 2.74032,-6.898066 0.80969,-0.882059 2.01619,-1.648334 3.2128,-1.606399 1.60881,0.05638 3.17761,1.179829 4.15774,2.456847 0.85615,1.115485 0.56696,3.1183 1.13393,4.063243 0.56696,0.944939 4.59306,3.038772 7.18154,3.874257 1.39054,0.448826 4.06325,-0.188989 4.34673,0.566962 0.28348,0.755952 2.83482,6.614582 2.83482,8.315472 0,1.7009 -0.18899,9.26042 -0.37798,9.92188 -0.18898,0.66146 -3.21279,11.71726 -3.49627,13.04018 -0.28349,1.32292 -1.75739,5.9892 -1.79539,9.07143 -0.0229,1.8537 -0.68063,4.58945 0.94494,5.48065 0.92844,0.50901 2.20934,-0.45206 2.92931,-1.22842 1.55778,-1.67978 1.88989,-5.66964 2.17337,-6.52009 0.28348,-0.85045 3.73331,-0.008 4.6302,1.32292 1.98243,2.94245 -4.25075,8.88821 -1.13392,10.58333 1.31806,0.71684 3.40178,-2.45685 3.49628,-2.83482 0.0945,-0.37798 0.66146,-5.66964 0.37797,-6.99256 -0.28348,-1.32292 -6.29265,-2.00522 -7.27604,-4.7247 -0.97572,-2.69826 0.88346,-5.88628 2.55134,-8.22098 1.17923,-1.65068 2.89327,-3.77306 4.91369,-3.59078 3.46159,0.31231 5.92715,4.31814 7.18155,7.55953 1.06883,2.76188 -0.0302,5.92521 -0.18899,8.88243 -0.1966,3.66205 0.2092,7.48034 -0.94494,10.96132 -0.97931,2.95366 -3.00568,5.47932 -4.91369,7.9375 -1.39323,1.79497 -2.83723,3.64859 -4.7247,4.91368 -2.13782,1.43288 -5.47428,0.90904 -7.18155,2.83483 -2.80772,3.1671 -2.05613,8.21287 -3.2128,12.28422 -1.81886,6.4022 -2.61014,13.27887 -5.85863,19.0878 -2.74499,4.90856 -7.11974,8.74001 -11.1503,12.6622 -2.82092,2.74507 -5.52968,5.84224 -9.07142,7.55953 -4.11341,1.99448 -8.87551,2.32253 -13.41816,2.83482 -3.81907,0.43069 -7.884985,1.41259 -11.528272,0.18898 -10.847162,-3.64304 -20.241045,-11.95218 -27.025298,-21.16666 -3.156245,-4.28686 -4.207311,-9.8114 -5.669642,-14.93006 -1.798699,-6.29606 -0.306807,-13.72573 -3.779764,-19.27679 -2.38565,-3.81314 -8.006972,-4.57905 -10.77232,-8.12648 -5.288319,-7.74434 -7.014083,-16.5593 -5.858631,-25.13542 0.391338,-2.80273 1.951995,-5.34197 2.456844,-8.12649 1.03612,-5.71478 0.714661,-11.59411 1.13393,-17.3869 0.401454,-5.54665 0.247083,-11.174847 1.322917,-16.630955 1.637992,-8.307101 2.626381,-17.448462 7.74851,-24.190475 3.1921,-4.201607 8.816815,-5.799643 13.229167,-8.693455 3.462721,-2.271002 6.518174,-5.346456 10.394346,-6.803569 7.205115,-2.708514 15.204066,-2.491315 22.867563,-3.212799 5.21169,-0.490658 10.77211,1.048495 15.68601,-0.755951 2.90966,-1.068463 4.45497,-4.617397 7.37053,-5.669643 4.80295,-1.733417 10.45101,-2.142511 15.30804,-0.566965 6.31717,2.049196 15.49702,10.583333 15.68601,12.284226 0.18899,1.700892 3.02381,17.197916 3.2128,18.142857 0.18899,0.944941 2.00098,12.20508 2.83482,18.331844 1.01791,7.479279 3.43413,14.982635 2.64583,22.489585 -0.45146,4.29928 -5.22519,8.09516 -4.15774,12.28422 0.82561,3.24001 6.08753,3.716 7.37054,6.80358 2.56419,6.17078 -0.75595,20.03274 -0.75595,20.03274"
       id="path34"
       inkscape:connector-curvature="0"
       sodipodi:nodetypes="csssssssssssssssssssssssssssssssssccssssssssssssssssssssssssssssssssssssccsssssssssssssssssssssssssssssssssssssssssssssssssssccssssssssssssssssc" />
  </g>
</svg>
