<?xml version="1.0" encoding="UTF-8" standalone="no"?>
<!-- Created with Inkscape (http://www.inkscape.org/) -->

<svg
   xmlns:dc="http://purl.org/dc/elements/1.1/"
   xmlns:cc="http://creativecommons.org/ns#"
   xmlns:rdf="http://www.w3.org/1999/02/22-rdf-syntax-ns#"
   xmlns:svg="http://www.w3.org/2000/svg"
   xmlns="http://www.w3.org/2000/svg"
   xmlns:sodipodi="http://sodipodi.sourceforge.net/DTD/sodipodi-0.dtd"
   xmlns:inkscape="http://www.inkscape.org/namespaces/inkscape"
   width="210mm"
   height="297mm"
   viewBox="0 0 210 297"
   version="1.1"
   id="svg133"
   inkscape:version="0.92.2 (5c3e80d, 2017-08-06)"
   sodipodi:docname="breadcat.svg">
  <defs
     id="defs127" />
  <sodipodi:namedview
     id="base"
     pagecolor="#ffffff"
     bordercolor="#666666"
     borderopacity="1.0"
     inkscape:pageopacity="0.0"
     inkscape:pageshadow="2"
     inkscape:zoom="1.4"
     inkscape:cx="385.51461"
     inkscape:cy="631.62149"
     inkscape:document-units="mm"
     inkscape:current-layer="layer1"
     showgrid="false"
     inkscape:window-width="1920"
     inkscape:window-height="981"
     inkscape:window-x="1200"
     inkscape:window-y="367"
     inkscape:window-maximized="1" />
  <metadata
     id="metadata130">
    <rdf:RDF>
      <cc:Work
         rdf:about="">
        <dc:format>image/svg+xml</dc:format>
        <dc:type
           rdf:resource="http://purl.org/dc/dcmitype/StillImage" />
        <dc:title></dc:title>
      </cc:Work>
    </rdf:RDF>
  </metadata>
  <g
     inkscape:label="Layer 1"
     inkscape:groupmode="layer"
     id="layer1">
    <path
       style="fill:none;stroke:#000000;stroke-width:0.26458332px;stroke-linecap:butt;stroke-linejoin:miter;stroke-opacity:1"
       d="m 59.876477,136.27179 c -0.215984,-0.53912 -0.851505,-0.4249 -1.349294,-0.86357 -0.0041,-0.004 -8.44226,3.10182 -8.8456,3.20154 -0.152349,0.0377 8.601804,-3.43861 8.407087,-3.3901 -2.502204,0.6234 -8.904569,2.52667 -9.250777,2.50001 -0.142259,-0.011 9.118157,-2.79421 8.928634,-2.76445 -2.788586,0.43788 -9.570061,2.18719 -9.683844,2.08242 -0.138391,-0.12743 9.722776,-2.28717 9.604805,-2.41778 -0.37754,-0.41799 -0.615718,-0.86147 -0.491811,-1.38927 0.138938,-0.59183 1.009032,-0.742 1.603618,-0.86862 0.205484,-0.0438 -1.810525,-3.95018 -2.052268,-4.91999 -0.01199,-0.0481 -3.64134,-0.98399 -3.640632,-1.17702 4.87e-4,-0.1326 -1.072991,-1.88035 -1.116174,-3.78663 -0.0033,-0.14715 0.58687,-1.95329 1.62436,-2.61163 0.147593,-0.0936 1.189859,-0.27806 2.070621,0.16271 0.330201,0.16525 0.158529,0.94786 -0.304188,1.25635 -2.160681,1.44052 -0.935339,3.57579 -0.638234,3.64873 0.539447,0.13243 0.379173,-2.328 0.981341,-3.48128 0.129466,-0.24795 0.125105,-1.49084 0.295981,-1.34263 0.391503,0.33959 1.590016,0.58543 1.642625,0.6293 1.454903,1.21326 -0.911756,5.75916 -0.907233,5.75882 0.498958,-0.0381 0.428703,4.96336 2.293918,5.76489 1.49039,0.64046 1.790023,0.5674 2.586551,0.46014 0.744442,-0.10024 0,0 1.403426,0.47697 0.92905,0.31575 5.138387,-1.87221 7.76451,-3.79077 1.444958,-1.05563 -2.073917,-2.48217 -1.841836,-2.88428 0.836634,-1.44957 0.253698,-2.9203 1.263603,-3.94532 0.289738,-0.29407 3.539277,-0.51932 2.721082,-0.18066 -1.150744,0.4763 -0.411383,4.18444 0.182461,4.15231 0.536271,-0.029 1.625477,-3.15786 0.05795,-3.79971 -1.007838,-0.41268 1.68744,-1.12425 1.708386,-1.11664 0.03125,0.0114 3.613994,2.03657 2.179411,4.577 -0.138505,0.24527 -1.02245,1.56892 -2.1325,2.13536 -0.946029,0.48273 -2.099456,0.17824 -2.877113,0.59953 -3.913443,2.12008 -8.121808,4.25707 -8.020903,4.33177 0.212071,0.15699 0.353649,0.35603 0.367512,0.61948 0.05317,1.0104 -0.793542,1.25244 -1.964691,1.71927 -0.108317,0.0432 14.612612,5.32701 14.816686,5.44758 2.168613,1.28128 -7.365379,-2.47631 -14.46904,-4.83451 -0.280876,-0.0932 14.236437,5.77807 14.0268,5.70913 -0.439679,-0.14459 -10.089737,-3.90636 -14.380201,-5.54483 -0.265557,-0.10141 11.219562,5.53621 13.416849,6.52275 4.659914,2.09221 -15.047988,-6.14542 -14.458008,-6.80661 0.433498,-0.48582 -0.934586,0.43975 -1.197889,0.92764 -0.529842,0.98177 -0.981179,3.76427 0.130278,3.86058 1.734015,0.15025 2.853211,0.41993 5.190099,1.01766 2.093046,0.53536 5.215045,1.51195 5.70171,1.86626 1.042805,0.7592 -3.092065,-0.29555 -5.264326,-0.79984 -7.094196,-2.05332 -5.38087,-1.13999 -6.292299,-1.41115 -2.026668,-0.11506 -1.515269,-0.13074 -2.087549,-0.009 -1.46341,0.31033 -4.304774,0.94507 -5.536242,0.96461 -1.77597,0.0282 -1.525588,-0.46675 -2.794936,-1.59907 -1.651171,-1.47293 -2.875873,-3.78453 -3.679741,-6.56236 -0.706855,-2.44366 -0.681034,-5.0823 -0.467722,-7.61718 0.287671,-3.41853 0.930078,-6.89449 2.338609,-10.02261 0.964177,-2.14128 2.366662,-4.1359 4.075859,-5.74629 1.470882,-1.38585 4.850835,-1.20784 5.144939,-3.20724 0.500676,-3.40373 -2.907012,-8.557674 -6.295656,-7.963422 -0.518481,0.09092 -1.173936,0.874312 -1.214871,1.399112 -0.234999,3.01269 2.890318,8.03841 2.082106,9.13372 -0.660802,0.89553 -1.008931,-1.99035 -1.386952,-3.03713 -0.653333,-1.80914 -1.404556,-3.68081 -1.509819,-5.56946 -0.04859,-0.87183 -0.05693,-1.979015 0.574377,-2.58226 1.419332,-1.356246 3.927551,-0.539344 5.879928,-0.334087 2.272979,0.238963 4.320788,1.188327 6.591298,1.449717 1.195641,0.13764 2.428633,0.18941 3.631763,0.22072 2.503591,0.0651 4.995636,0.38092 7.483546,0.66817 2.994468,0.34574 17.081094,1.50231 14.332328,2.73951 -3.53978,1.59323 -8.258545,3.53168 -7.951268,5.57925 0.118195,0.78761 11.677622,9.26948 12.571051,8.86681 0.835017,-0.37633 -11.119966,-6.66506 -11.462727,-8.62813 0.69486,-4.53427 12.039354,-7.88893 14.693986,-5.61747 1.135715,1.39871 -0.667803,3.54865 -0.801809,5.34539 -0.102706,1.37707 -0.04657,2.76257 0,4.14268 0.05571,1.65098 0.157223,3.30206 0.334087,4.94448 0.195263,1.81328 0.71458,3.59054 0.801809,5.41221 0.18667,3.89836 0.411376,7.92389 -0.601356,11.69304 -0.519536,1.93359 -1.392927,3.86371 -2.739514,5.34539 -1.973794,2.17181 -4.729723,3.56393 -7.416728,4.74403 -3.269536,1.43594 -6.811911,2.30789 -10.356694,2.73952 -2.719787,0.33117 -5.492265,0.13903 -8.218538,-0.13364 -2.434178,-0.24346 -4.828462,-0.80452 -7.216277,-1.33634 -2.066995,-0.46037 -4.336643,-0.50531 -6.1472,-1.60362 -1.617844,-0.98141 -2.747548,-2.64273 -3.80859,-4.2095 -1.306985,-1.92994 -2.170775,-4.13193 -3.073601,-6.28083 -0.439297,-1.04561 -0.0099,-3.07152 -1.135896,-3.20723 -1.265881,-0.15257 -1.274057,1.05903 -1.88796,2.3426 -0.540126,1.12931 -1.719916,2.2663 -2.266877,3.24574 -1.535132,2.74894 -2.561689,6.08151 -3.796429,8.97784 -1.385255,3.24939 -3.101794,6.42807 -3.808592,9.88898 -0.379043,1.85603 -0.515829,3.94597 0.130278,5.72672 0.398076,1.09714 1.738951,1.86275 2.905571,1.89717 4.613883,0.13614 6.665154,0.1435 10.939058,0 2.654909,-0.0891 6.288304,0.0453 8.943454,0.12692 2.603886,0.0801 3.324921,0.0513 5.908184,0.38805 3.051735,0.39779 6.416202,0.77797 9.484709,1.01373 2.932083,0.22528 7.396165,0.83073 10.331801,1.00365 3.283175,0.1934 6.631488,0.35413 9.916648,0.51022 2.002262,0.0951 4.575175,0.80077 6.344292,-0.14174 1.444746,-0.76971 1.69827,-1.99224 2.314292,-3.5089 0.562251,-1.38426 0.735001,-3.74177 0.801811,-4.40995 0.0668,-0.66817 0.49983,-4.36001 0.52308,-6.56767 0.0159,-1.5151 -0.058,-3.09894 -0.32263,-4.59083 -0.17224,-0.97088 -0.49415,-1.71134 -0.62834,-2.68821 -0.12441,-0.90575 -0.208053,-2.0805 0.13364,-2.9285 0.51916,-1.28847 1.51799,-2.02383 2.43241,-3.06955 1.57919,-1.80595 3.02284,-3.43351 4.50779,-5.31772 1.26609,-1.60649 2.3544,-3.24707 3.25784,-5.08217 0.56632,-1.15031 1.26577,-2.13055 1.67923,-3.34422 0.45226,-1.32753 1.23888,-2.90955 1.44637,-4.29658 0.33011,-2.2067 0.0612,-4.49887 -0.40091,-6.68174 -0.36928,-1.74439 -1.03133,-3.43827 -1.87088,-5.0113 -0.82654,-1.54867 -1.78072,-3.08889 -3.0736,-4.27632 -7.55679,-5.729669 -18.365996,-6.579122 -26.199185,-7.241709 -2.379182,-0.190504 -7.139817,-0.200364 -8.954172,0.0045 -3.414387,0.438071 -8.033599,0.761328 -10.156243,1.870891 -3.042665,1.590478 6.428951,-0.842892 9.829566,-1.31539 2.913301,-0.33911 5.814616,-0.610226 8.335368,-0.599331 8.275669,0.417487 12.149901,0.307035 19.227096,3.176839 1.61246,0.64653 4.3195,1.55895 5.77941,2.50061 1.53614,0.99083 2.83934,2.33704 4.00904,3.74177 1.03187,1.2392 1.89007,2.63088 2.60588,4.07586 0.74754,1.50903 1.40444,3.09321 1.73725,4.74404 0.28201,1.39886 0.22575,2.84953 0.20046,4.27631 -0.0384,2.16742 -0.13542,4.35058 -0.53454,6.48129 -0.23095,1.23295 -0.56773,2.45828 -1.06908,3.60813 -1.24118,2.84665 -3.10604,5.37973 -4.74404,8.01809 -0.88303,1.42232 -1.75884,2.85264 -2.73951,4.20949 -0.83539,1.15584 -1.74075,1.62546 -2.0821,3.01014 -0.56149,2.27765 -0.54593,5.00838 -0.59059,7.34656 -0.0668,3.49869 -0.0335,7.01034 -0.40091,10.49033 -0.10919,1.03416 -0.21352,2.08448 -0.53454,3.0736 -0.37513,1.15588 -0.93952,2.25633 -1.60361,3.27405 -0.509605,0.78096 -0.996683,1.67155 -1.804075,2.13815 -0.979689,0.56617 -2.211693,0.52857 -3.34087,0.60136 -1.802526,0.1162 -3.613286,-0.10452 -5.412206,-0.26727 -2.036024,-0.18421 -4.040825,-0.66203 -6.080381,-0.80181 -3.866403,-0.26499 -7.753537,0.0801 -11.626226,-0.0668 -6.358691,-0.24113 -11.486971,-0.52149 -17.814531,-1.1946 -1.409458,-0.14993 -3.599422,-0.96559 -5.012694,-1.07383 -2.020997,-0.15479 -5.380641,-0.12444 -7.403297,-0.25579 -2.439766,-0.15843 -4.112076,0.55084 -6.385403,-0.3489 -0.977521,-0.38689 -2.16919,-1.83985 -2.302825,-2.10713 -0.133634,-0.26726 -0.461578,-2.84411 -0.549362,-4.44098 -0.09599,-1.74614 -0.50282,-3.49799 -0.154596,-5.21175 0.392941,-1.93383 1.670436,-5.21176 1.670436,-5.67948 0,-0.46772 2.318612,-4.96823 3.407685,-7.48354 0.698446,-1.61312 1.201757,-3.31385 2.004523,-4.87768 0.767651,-1.49542 1.681793,-2.91849 2.672694,-4.27631 0.670757,-0.91913 1.084423,-2.80357 2.204974,-2.60587 1.041109,0.18368 0.871156,1.76512 1.05643,2.94686 0.209904,1.33883 0.728396,2.33878 1.28218,3.40079 0.702755,1.3477 1.340198,2.90021 2.605876,3.74177 1.314214,0.45927 1.292518,-0.0198 2.642334,-0.23731 3.889493,-0.62675 5.988584,-0.34013 7.123772,-0.9458 -0.04319,-0.65746 0.102878,-2.03548 0.141046,-2.43519 0.05352,-0.60279 0.491836,-1.29648 0.591283,-1.89316 z"
       id="path148"
       inkscape:connector-curvature="0"
       sodipodi:nodetypes="cssssssssssssssssssssssssssssssssssssssssssssssccssscsssssssasssssssssccsssssssssssssssssssssssssssssssssssssssscccscccssssssssssssssssssssssssssssssssscscccc" />
  </g>
</svg>
