<?xml version="1.0" encoding="UTF-8" standalone="no"?>
<!-- Created with Inkscape (http://www.inkscape.org/) -->

<svg
   xmlns:dc="http://purl.org/dc/elements/1.1/"
   xmlns:cc="http://creativecommons.org/ns#"
   xmlns:rdf="http://www.w3.org/1999/02/22-rdf-syntax-ns#"
   xmlns:svg="http://www.w3.org/2000/svg"
   xmlns="http://www.w3.org/2000/svg"
   xmlns:sodipodi="http://sodipodi.sourceforge.net/DTD/sodipodi-0.dtd"
   xmlns:inkscape="http://www.inkscape.org/namespaces/inkscape"
   width="297mm"
   height="210mm"
   viewBox="0 0 297 210"
   version="1.1"
   id="svg8"
   inkscape:version="0.92.2 (5c3e80d, 2017-08-06)"
   sodipodi:docname="TrebleClef.svg">
  <defs
     id="defs2" />
  <sodipodi:namedview
     id="base"
     pagecolor="#ffffff"
     bordercolor="#666666"
     borderopacity="1.0"
     inkscape:pageopacity="0.0"
     inkscape:pageshadow="2"
     inkscape:zoom="1.4"
     inkscape:cx="1168.5994"
     inkscape:cy="320.94164"
     inkscape:document-units="mm"
     inkscape:current-layer="layer1"
     showgrid="false"
     inkscape:window-width="1920"
     inkscape:window-height="981"
     inkscape:window-x="1200"
     inkscape:window-y="367"
     inkscape:window-maximized="1" />
  <metadata
     id="metadata5">
    <rdf:RDF>
      <cc:Work
         rdf:about="">
        <dc:format>image/svg+xml</dc:format>
        <dc:type
           rdf:resource="http://purl.org/dc/dcmitype/StillImage" />
        <dc:title></dc:title>
      </cc:Work>
    </rdf:RDF>
  </metadata>
  <g
     inkscape:label="Layer 1"
     inkscape:groupmode="layer"
     id="layer1"
     transform="translate(0,-87)">
    <path
       id="path81"
       d="m 67.381387,138.33952 c -14.635452,75.65194 -21.354334,40.65697 22.13354,42.24802 7.273621,0.26992 4.308496,-40.56677 6.605001,-41.64447 0.829481,-0.38926 4.284242,-0.55669 4.362082,0.83807 0.19511,3.49579 -7.450162,60.85327 -4.095873,72.24756 5.704943,-1.88675 13.451993,-0.27884 17.268323,-3.71531 6.1141,-5.50551 10.22312,-15.54703 13.82922,-23.2478 2.17456,-0.49346 5.04868,-0.31389 4.82721,1.07143 -1.45541,9.1041 -1.81827,21.99766 -0.8454,25.25813 6.62906,0.62252 15.50551,4.3091 21.2809,-0.70745 4.60827,-4.00279 4.19845,-34.65392 5.04199,-47.65548 2.50693,-0.51142 0.74487,-0.7426 6.42155,-0.0478 1.25741,16.92601 4.64574,28.68006 8.16784,28.26116 3.33451,-0.3966 12.42918,-20.6851 13.31368,-25.30565 2.94203,-1.29951 7.53234,-3.9188 7.65276,-1.85544 -0.85389,23.17726 -12.80398,45.88081 -11.84099,50.26987 17.64475,-0.19377 10.30798,-5.78366 21.66836,-6.69916 -0.67746,5.86214 -3.15719,9.39415 -3.58738,13.20324 8.29902,0.51428 5.67994,0.64361 5.67994,0.64361 6.42304,-12.60501 10.83558,-35.67906 12.95828,-48.37304 0.17967,-6.66691 3.08057,-5.00434 4.02114,0.2655 -0.64027,10.77452 -0.57096,18.85119 -0.55465,28.4057 0.77707,-2.58556 -0.63862,-7.86075 11.22915,-7.25144 5.49339,5.8708 7.14537,9.48641 6.28308,11.81157 -1.64678,4.44052 -11.31398,4.17446 -12.83864,5.92149 2.78578,4.1108 2.55165,4.76677 6.87523,6.53452 1.06228,0.37178 5.31677,1.45037 6.43055,1.49572 1.1048,0.0292 4.43082,-0.21134 5.53591,-0.21454 1.05017,-0.0695 6.87023,-2.56887 7.89868,-2.76553 1.61652,-3.59993 0.20762,-11.47256 -3.1676,-11.39236 -1.86184,0.0443 -4.74931,1.88388 -7.05003,9.66769 0.25912,0.94018 1.84044,7.59133 2.49776,8.29098 1.59307,2.85887 5.08182,5.82066 8.3662,6.60266 4.70987,1.1214 4.38139,2.71642 9.01739,1.33042 1.50318,0.71415 2.44072,1.58139 3.34867,2.89792 -8.52203,3.23729 -14.70161,0.11734 -19.30975,-3.35456 -10.93017,-8.23509 -11.70185,-26.97429 4.47966,-28.94306 24.49563,28.25607 -38.83135,22.13183 -27.73492,7.36592 -2.09242,0.72531 10.42026,-3.42622 13.02486,-4.3221 -1.61383,-3.68636 -1.91901,-7.28806 -4.51666,-8.21143 -2.02627,-0.72026 -4.59949,0.11101 -7.42412,0.93876 -1.26808,2.29625 -2.58544,14.48954 -2.08054,15.4562 -0.0148,0.57448 -2.46604,0.34366 -2.8931,2.04304 -0.35421,1.40948 0.75042,8.82975 0.61016,9.28981 -2.13098,1.30981 -4.49493,1.18206 -5.10487,-0.8062 -1.4725,-9.95938 2.01743,-26.39253 2.05162,-30.50102 2.20335,-13.98293 -1.84465,13.78494 -9.28866,29.73753 -5.22317,0.45402 -6.53566,0.45208 -12.35989,-0.82471 0.41069,-3.53771 2.03538,-5.23504 2.36418,-10.4731 -5.48126,1.94537 -9.7092,10.31884 -23.6299,5.43644 -0.49526,-3.73462 15.09608,-47.84558 12.76964,-45.25683 -3.56597,3.96805 -7.39704,23.71751 -14.94112,25.48622 -6.61182,-2.39123 -8.51383,-17.6865 -10.109,-22.70048 -1.734,12.58238 -2.6984,31.4287 -3.66518,36.70959 -1.13679,6.20955 -18.64806,6.64096 -31.55854,0.75331 -1.24068,-5.37943 -0.87413,-14.72659 -0.15274,-19.77101 -2.9435,4.03928 -8.12746,13.45624 -10.97009,17.41543 -5.9231,3.02232 -22.054539,7.44704 -25.385371,2.65642 -1.434102,3.09934 2.062883,-25.33801 -0.625746,-25.76351 -11.456809,1.46959 -26.669817,1.94544 -32.553022,6.77406 -7.81383,6.41318 -2.14125,14.7525 -4.714807,22.79352 -0.718606,2.24527 -2.968076,0.76115 -3.495259,0.0666 -2.69979,-3.55707 2.464304,-38.90285 14.891137,-77.27822 1.657731,-2.43526 3.588155,-1.10623 3.588155,-1.10623 z"
       inkscape:connector-curvature="0"
       style="stroke-width:0.26458332"
       sodipodi:nodetypes="ccsscscscsccsccccccccccscccccsccsccscccsccscccccccsccscccccsssccc" />
  </g>
</svg>
